<?xml version="1.0" encoding="UTF-8"?>
<!DOCTYPE svg PUBLIC "-//W3C//DTD SVG 1.1//EN" "http://www.w3.org/Graphics/SVG/1.1/DTD/svg11.dtd">
<svg xmlns="http://www.w3.org/2000/svg" version="1.1" width="283px" height="284px" style="shape-rendering:geometricPrecision; text-rendering:geometricPrecision; image-rendering:optimizeQuality; fill-rule:evenodd; clip-rule:evenodd" xmlns:xlink="http://www.w3.org/1999/xlink">
<g><path style="opacity:0.99" fill="#fefefe" d="M 130.5,15.5 C 182.176,13.7445 222.009,34.4111 250,77.5C 271.1,116.362 272.767,156.029 255,196.5C 227.406,247.223 184.572,270.723 126.5,267C 64.5761,256.41 27.7428,220.243 16,158.5C 11.1197,104.431 31.2864,62.5978 76.5,33C 93.4284,23.4434 111.428,17.6101 130.5,15.5 Z"/></g>
<g><path style="opacity:1" fill="#191922" d="M 55.5,93.5 C 61.8421,93.3338 68.1754,93.5005 74.5,94C 78.6185,98.0734 78.2852,101.74 73.5,105C 67.8333,105.667 62.1667,105.667 56.5,105C 51.5306,101.66 51.1972,97.8267 55.5,93.5 Z"/></g>
<g><path style="opacity:1" fill="#f79626" d="M 93.5,93.5 C 126.254,93.0144 158.92,93.5144 191.5,95C 204.249,102.123 216.749,109.623 229,117.5C 229.818,133.878 229.651,150.211 228.5,166.5C 215.5,174 202.5,181.5 189.5,189C 162.746,189.982 136.08,189.648 109.5,188C 107.964,184.76 108.297,181.76 110.5,179C 116.833,178.667 123.167,178.333 129.5,178C 133.5,174.667 133.5,171.333 129.5,168C 112.167,167.667 94.8333,167.333 77.5,167C 74.8333,163.667 74.8333,160.333 77.5,157C 102.5,156.333 127.5,156.333 152.5,157C 158.832,163.839 166.499,168.672 175.5,171.5C 179.104,171.451 181.604,169.784 183,166.5C 183.667,160.833 183.667,155.167 183,149.5C 181.789,146.241 179.956,143.408 177.5,141C 170.329,136.58 162.996,132.414 155.5,128.5C 154.67,134.472 154.17,140.472 154,146.5C 153.097,147.701 151.931,148.535 150.5,149C 140.5,149.667 130.5,149.667 120.5,149C 115.69,145.645 115.356,141.979 119.5,138C 125.61,137.912 131.61,137.245 137.5,136C 139.013,133.084 138.68,130.418 136.5,128C 109.08,127.983 81.7467,127.316 54.5,126C 51.6572,122.381 51.9905,119.048 55.5,116C 78.1667,115.667 100.833,115.333 123.5,115C 126.167,112 126.167,109 123.5,106C 112.735,105.954 102.069,105.287 91.5,104C 88.6023,99.7656 89.2689,96.2656 93.5,93.5 Z"/></g>
<g><path style="opacity:1" fill="#fffbf7" d="M 185.5,104.5 C 188.794,104.259 191.794,105.092 194.5,107C 201.668,111.083 208.668,115.416 215.5,120C 213.154,123.001 210.154,124.001 206.5,123C 198.131,117.819 189.797,112.653 181.5,107.5C 182.901,106.479 184.235,105.479 185.5,104.5 Z"/></g>
<g><path style="opacity:1" fill="#fffbf7" d="M 164.5,116.5 C 167.425,116.46 170.091,117.293 172.5,119C 179.833,123.333 187.167,127.667 194.5,132C 190.519,136.259 186.185,136.592 181.5,133C 175.167,129.333 168.833,125.667 162.5,122C 161.643,121.311 160.977,120.478 160.5,119.5C 161.901,118.479 163.235,117.479 164.5,116.5 Z"/></g>
<g><path style="opacity:1" fill="#fffdfc" d="M 217.5,129.5 C 218.5,129.5 219.5,129.5 220.5,129.5C 220.832,140.187 220.499,150.854 219.5,161.5C 212.5,165.667 205.5,169.833 198.5,174C 196.655,175.128 194.655,175.628 192.5,175.5C 192.168,164.813 192.501,154.146 193.5,143.5C 195.332,142.752 196.999,141.752 198.5,140.5C 199.495,145.792 199.828,151.125 199.5,156.5C 204.144,155.347 208.477,153.347 212.5,150.5C 213.13,144.19 213.796,137.856 214.5,131.5C 215.739,131.058 216.739,130.391 217.5,129.5 Z"/></g>
<g><path style="opacity:1" fill="#191a23" d="M 57.5,137.5 C 61.8461,137.334 66.1794,137.501 70.5,138C 74.6185,142.073 74.2852,145.74 69.5,149C 65.8333,149.667 62.1667,149.667 58.5,149C 53.5153,145.564 53.182,141.731 57.5,137.5 Z"/></g>
<g><path style="opacity:1" fill="#191922" d="M 87.5,137.5 C 93.8421,137.334 100.175,137.5 106.5,138C 110.619,142.073 110.285,145.74 105.5,149C 99.0828,149.87 92.7494,149.536 86.5,148C 83.7113,144.225 84.0446,140.725 87.5,137.5 Z"/></g>
<g><path style="opacity:1" fill="#14151e" d="M 84.5,178.5 C 89.1785,178.334 93.8452,178.501 98.5,179C 100.478,181.497 100.978,184.331 100,187.5C 99.2496,188.126 98.4162,188.626 97.5,189C 93.1667,189.667 88.8333,189.667 84.5,189C 80.6054,185.511 80.6054,182.011 84.5,178.5 Z"/></g>
</svg>
